# xmcd
#
# Track frame offsets:
#	150
#	25321
#	46623
#	73492
#	118244
#	140645
#	167023
#	190563
#	237592
#	265872
#
# Disc length: 4073 seconds
#
# Revision: 3
# Processed by: cddbd v1.4PL0 Copyright (c) Steve Scherf et al.
# Submitted via: CDmax 1.8
#
DISCID=910fe70a
DTITLE=Jimmy Johnson And The Chicago Dave Blues Band, feat. Sam Burckhardt - B
DTITLE=rothers
DYEAR=2002
DGENRE=Blues
TTITLE0=That Will Never Do
TTITLE1=I'm A Jockey
TTITLE2=Little By Little
TTITLE3=As The Years Go Passing By
TTITLE4=Engine Number Nine
TTITLE5=End Of The Road
TTITLE6=Blue Monday
TTITLE7=Chicken Head
TTITLE8=Rock And A Hard Place
TTITLE9=Look On Yonders Wall/Sweet Home Chicago (Medley)
EXTD=Live Recorded At The 3rd Blues Festival Basel 2002\nBrambus Records Switz
EXTD=erland\n200273-2
EXTT0=
EXTT1=
EXTT2=
EXTT3=
EXTT4=
EXTT5=
EXTT6=
EXTT7=
EXTT8=
EXTT9=
PLAYORDER=
